<svg width="300" height="225" fill="none" xmlns="http://www.w3.org/2000/svg"><g clip-path="url(#clip0)"><path d="M287.74 199.7l1.12-4.42c2-.84 4.03-1.57 6.1-2.19l.15 2.06.57-2.27c2.57-.73 4.32-1.05 4.32-1.05s-2.36 8.98-7.32 15.85l-5.77 1.01 4.48.65c-.62.75-1.29 1.46-2 2.12-7.2 6.7-15.24 9.76-17.93 6.86-2.7-2.9.96-10.68 8.17-17.37a30.63 30.63 0 017.85-5.05l.26 3.8z" fill="#E6E6E6"/><path d="M277.06 194.9l-1.32-4.37a57.27 57.27 0 014.09-5.03l1.18 1.7-.68-2.24a51.7 51.7 0 013.15-3.14s2.63 8.9 1.93 17.35l-4.41 3.85 4.17-1.77c-.15.97-.35 1.92-.62 2.86-2.71 9.45-8 16.23-11.8 15.14-3.81-1.1-4.7-9.64-1.99-19.1a30.6 30.6 0 014.11-8.37l2.2 3.12z" fill="#E6E6E6"/><path d="M299.32 218.93H125v.68h174.32v-.68z" fill="#3F3D56"/><path d="M8.18 88.52c-2.36-3.5-3.37-9.72 1.02-12.79 2.17-1.52 4.81-1.33 7.1-.66 3.17.92 5.98 2.8 8.41 4.92 2.8 2.43 5.21 5.29 7.58 8.14a170.13 170.13 0 0039.94 35.75c2.95 1.9 5.97 3.7 9.05 5.4a80.68 80.68 0 008.86 4.4c4.04 1.62 10.96 3.9 14.55-.67 1.9-2.41 2-5.7 1.56-8.45-.51-3.33-1.82-6.44-3.11-9.48-6-14.12-12.06-28.21-18.1-42.32-1.4-3.3-2.85-6.58-4.02-9.98-1.1-3.18-2-6.54-2.03-10.01-.02-3.04.64-6.46 2.95-8.79 1.9-1.94 4.59-2.58 7.11-2.56 6.25.03 12.12 3.21 16.97 6.56 6.02 4.17 11.35 9.22 17.35 13.42 4.85 3.39 10.55 6.46 16.74 6.84 2.37.15 4.88-.16 7.05-1.46a9.75 9.75 0 004.21-5.67c.81-2.73.71-5.6.28-8.3a34.26 34.26 0 00-2.9-9.07c-2.92-6.25-6.91-11.86-10.36-17.79-1.68-2.9-3.33-5.9-4.38-9.15-.9-2.75-1.62-6-.74-8.98 1.82-6.15 9.2-3.84 12.95-2.06a59.95 59.95 0 017.32 4.26c.5.33.99-.55.49-.88a57.56 57.56 0 00-7.72-4.45c-2.28-1.04-4.8-1.95-7.41-1.9-2.2.04-4.42.96-5.7 2.93-1.54 2.33-1.43 5.34-1.02 7.83.54 3.3 1.84 6.36 3.34 9.26 1.57 3.06 3.37 5.99 5.18 8.9 3.62 5.81 7.58 11.7 9.38 18.5 1.26 4.74 2.06 12.16-3.07 15.55-2.28 1.5-5.08 1.72-7.6 1.44a27.84 27.84 0 01-8.66-2.63c-12.64-5.93-21.06-18.25-34.54-22.8-4.58-1.56-11-2.55-15.03 1.64-2.1 2.18-2.93 5.2-3.12 8.04-.23 3.4.48 6.75 1.45 9.9a97.9 97.9 0 003.72 9.7l4.54 10.62 9.19 21.48 4.56 10.68c1.4 3.26 2.89 6.53 3.61 10.06.6 2.9.76 6.87-1.78 9.2-2.03 1.85-4.98 1.76-7.35 1.33a33.72 33.72 0 01-8.7-3.1 134.63 134.63 0 01-9.27-5.05 164.08 164.08 0 01-17.9-12.22 170.55 170.55 0 01-23.7-22.56c-2.48-2.87-4.8-5.86-7.37-8.65a36.06 36.06 0 00-7.8-6.63c-2.47-1.48-5.39-2.72-8.42-2.63a7.62 7.62 0 00-5.6 2.7 9.4 9.4 0 00-2.07 5.95c.01 2.44.77 4.82 2.16 6.83.34.5 1.19-.04.85-.54zM46.83 7.02H6.35v35.94h40.48V7.02z" fill="#E6E6E6"/><path d="M46.83 71.72H6.35v35.94h40.48V71.72zM176.9 7.02h-40.48v35.94h40.48V7.02z" fill="#00BAFC"/><path d="M176.9 71.72h-40.48v35.94h40.48V71.72z" fill="#E6E6E6"/><path d="M112.32 7.02H71.84v35.94h40.48V7.02zM112.32 71.72H71.84v35.94h40.48V71.72z" fill="#00BAFC"/><path d="M71.96 13.73a6.76 6.76 0 100-13.51 6.76 6.76 0 000 13.51zM137.16 13.73a6.76 6.76 0 100-13.51 6.76 6.76 0 000 13.51zM6.76 78.6a6.76 6.76 0 100-13.52 6.76 6.76 0 000 13.52zM71.96 78.6a6.76 6.76 0 100-13.52 6.76 6.76 0 000 13.52z" fill="#3F3D56"/><path d="M229.5 215.47s-9.45.72-8.48 4.11c.97 3.4 8.47 2.91 8.47 2.91s5.81-.49 8.96.48c3.15.97 6.78 0 7.02-1.7.25-1.69-1.7-2.9-1.7-2.9l-1.2-2.42-13.08-.48z" fill="#2F2E41"/><path d="M204.68 139.8l-.97 3.88s-4.36 8.95.97 8.95c5.32 0 3.38-8.23 3.38-8.23l.49-3.87-3.88-.73zM251.4 136.65l.97 3.88s4.36 8.96-.96 8.96c-5.33 0-3.4-8.24-3.4-8.24l-.48-3.87 3.88-.73zM226.22 70.8a10.41 10.41 0 100-20.83 10.41 10.41 0 000 20.82z" fill="#9F616A"/><path d="M223.08 68.37s1.2 5.57.48 8.23c-.72 2.67 15.01-.48 15.01-.48s-5.57-9.2-5.32-9.44l-10.17 1.7z" fill="#9F616A"/><path d="M225.5 74.67s-4.36-1.21-5.81.24c-1.46 1.45-9.93 5.57-9.93 5.57l5.81 35.6 25.18-5.58 4.36-33.65s-6.87-4.03-8.03-3.23c-1.17.8-11.58 1.05-11.58 1.05z" fill="#D0CDE1"/><path d="M211.7 80.72l-1.17-.62s-4.4.86-4.16 4.25c.24 3.4 1.21 22.28 1.21 22.28l-3.87 34.14 7.02 1.21 7.02-28.57-6.05-32.69zM244.38 77.57l1.17-.62s4.4.86 4.16 4.25c-.24 3.4-1.2 22.28-1.2 22.28l3.87 34.14-7.03 1.21-7.02-28.57 6.05-32.69z" fill="#D0CDE1"/><path d="M215.81 112.44l-.97 14.77-3.14 29.54 4.6 61.26 15.98.48-4.84-58.35 4.84-20.1 15.83-.58s1.12-23.15-7.84-30.41l-24.46 3.39z" fill="#2F2E41"/><path d="M233.25 136.65l-2.55 53.4-.84 27 14.28 1.44 3.6-79.4-5.53-5.58-8.96 3.14zM230.82 46.58s-9.44-1.21-12.1 3.39c0 0-.73 3.39-3.15 4.6-2.42 1.21.49 5.33 1.21 6.54.73 1.2 2.66 8.23.49 9.93-2.18 1.69 3.87 6.53 3.87 6.53s2.9 3.88.48 6.78c-2.42 2.9 3.15 3.88 3.15 3.88s-1.2 8.23.97 6.05c0 0 .97 18.64 10.17 7.02 9.2-11.62 13.08-17.19 9.2-21.79-3.87-4.6-.97-8.72-.97-8.72s1.21-2.42-1.45-6.05-2.66-18.16-11.87-18.16zM217.15 216.92s-9.45.73-8.48 4.12c.97 3.39 8.48 2.9 8.48 2.9s5.8-.48 8.95.49c3.15.97 6.78 0 7.03-1.7.24-1.7-1.7-2.9-1.7-2.9l-1.21-2.43-13.07-.48z" fill="#2F2E41"/></g><defs><clipPath id="clip0"><path fill="#fff" transform="translate(0 .22)" d="M0 0h300v224.59H0z"/></clipPath></defs></svg>