<svg width="300" height="260" fill="none" xmlns="http://www.w3.org/2000/svg"><g clip-path="url(#clip0)"><path d="M163.75 72.91a27.62 27.62 0 100-55.24 27.62 27.62 0 000 55.24z" fill="#A0616A"/><path d="M143.13 59.1s5.2 39.23-2.8 43.64c-8 4.4 47.64 4.8 47.64 4.8s-12.4-34.03-6.8-44.44l-38.04-4z" fill="#A0616A"/><path d="M228.6 107.74l-4.62 21.08-9.79 44.58-.29 2.44-3.38 28.27-2.24 18.78-1.51 12.61c-9.16 4.7-15.8 7.96-15.8 7.96s-.57-2.87-1.49-6.53c-6.42 1.93-18.32 5.13-28.4 5.76 3.67 4.1 5.36 7.94 3.07 10.78-6.9 8.54-35.4-9.37-45.38-16.04-.23 1.6-.31 3.21-.26 4.83l-7.63-5.87.76-13.5 1.27-22.85 1.6-28.64c-.5-1.23-.93-2.49-1.26-3.77-2.34-8.3-5.18-24.9-7.35-38.81a1363.44 1363.44 0 01-3.4-23.08l42.23-18.66c3 6.96 17.02 9.05 17.02 9.05 11.61-.8 20.71-6.92 20.71-6.92l46.15 18.53z" fill="#D0CDE1"/><path d="M194.18 235.45s-1.79.62-4.7 1.48c-6.42 1.93-18.32 5.13-28.4 5.76-8.67.56-16-.78-17.35-6.44-.57-2.43.24-4.43 2.02-6.08 5.3-4.92 19.16-6.68 30.15-7.28 3.1-.17 5.97-.25 8.36-.28 4.05-.05 6.71.03 6.71.03l.07.25 3.14 12.56z" fill="#A0616A"/><path d="M140.77 19.16l-5.16-2.07S146.4 5.2 161.43 6.24l-4.22-4.66s10.32-4.13 19.72 6.72c4.93 5.71 10.64 12.42 14.2 19.98h5.54l-2.31 5.08 8.08 5.08-8.3-.91c.5 2.78.57 5.62.23 8.43a10.9 10.9 0 01-4 7.14s-6.4-13.26-6.4-15.33v5.17s-5.17-4.65-5.17-7.75L176 38.8l-1.41-5.68-17.38 5.68 2.82-4.65-10.8 1.55 4.23-5.68s-12.2 6.72-12.68 12.4c-.47 5.69-4.04 11.08-4.04 11.08s-9.57-26.59 4.04-34.34z" fill="#2F2E41"/><path d="M258.63 204.62c-2.81 3.05-9.78 7.65-18.24 12.62-3.14 1.85-6.49 3.75-9.9 5.65-8.15 4.52-16.68 9-23.72 12.61-9.16 4.7-15.8 7.96-15.8 7.96s-.57-2.87-1.49-6.53c-1.23-4.9-3.08-11.24-5.02-14.04l-.2-.28c-.57-.74-1.13-1.17-1.7-1.17l27.96-17.33 12.08-7.5-8.7-20.77-10.92-26.06 6.6-20.97 6.61-21.07h12.42a814.1 814.1 0 0011.78 27.31c10.82 26.3 24.3 63.02 18.24 69.57z" fill="#D0CDE1"/><path d="M164.15 253.47c-6.9 8.54-35.4-9.37-45.38-16.04a162.5 162.5 0 01-3.46-2.38l9.12-12.16 2.9-3.85s2.58 1.37 6.4 3.6l.42.25c3.3 1.93 7.43 4.46 11.6 7.28 5.76 3.9 11.58 8.34 15.33 12.53 3.67 4.09 5.36 7.93 3.07 10.77z" fill="#A0616A"/><path d="M133.73 222.64c-1.02 0-2.04.08-3.05.25-8.63 1.48-11.18 9.3-11.9 14.54-.24 1.6-.33 3.21-.27 4.83l-7.63-5.87-2.78-2.14c-6.69-2.33-12.65-6.47-17.82-11.36a89.53 89.53 0 01-12-14.24A125.47 125.47 0 0169 192.73a11.71 11.71 0 01-.16-9.94l9.45-21.05 13.8-30.78.34-2.15c2.74-15.7 10.08-22.67 10.08-22.67h5.6l3.75 22.67 4.66 28.17-3.26 10.65-7.55 24.59 7.21 7.82 20.82 22.6z" fill="#D0CDE1"/><path d="M140.07 157l4.79 5.6c1.78-.34 3.64-.74 5.55-1.19l-1.37-4.4 3.36 3.92c20.29-4.99 45.43-14.69 45.43-14.69s-27.15 2-47.41-2.43c-8.97-1.96-18.2 2.48-21.87 10.9-2.14 4.88-1.8 9.11 5.78 9.11 2.56-.04 5.12-.28 7.64-.72l-1.9-6.1z" fill="#00BAFC"/><path d="M249.3 248.88v2.28a5.03 5.03 0 01-5.05 5.05H76.51a5.05 5.05 0 01-5.05-5.05v-2.28a5.04 5.04 0 015.05-5.04h9.67v-1.07a.21.21 0 01.06-.15.2.2 0 01.15-.06h5.04a.2.2 0 01.21.21v1.07h3.15v-1.07a.21.21 0 01.07-.15.2.2 0 01.14-.06h5.05a.2.2 0 01.15.06l.04.07.02.08v1.07h3.16v-1.07a.2.2 0 01.06-.15.2.2 0 01.06-.04.2.2 0 01.08-.02h5.05a.2.2 0 01.15.06l.05.07.01.08v1.07h3.15v-1.07c0-.02 0-.05.02-.08a.2.2 0 01.2-.13h5.04a.2.2 0 01.08.02.2.2 0 01.07.04l.04.07a.2.2 0 01.02.08v1.07h3.15v-1.07a.2.2 0 01.06-.15.22.22 0 01.15-.06h5.05a.21.21 0 01.15.06.22.22 0 01.06.15v1.07h3.15v-1.07a.2.2 0 01.06-.15.22.22 0 01.15-.06h5.05a.21.21 0 01.15.06.22.22 0 01.06.15v1.07h3.15v-1.07a.2.2 0 01.06-.15.21.21 0 01.15-.06h39.52a.2.2 0 01.14.06l.05.07a.2.2 0 01.02.08v1.07h3.15v-1.07a.2.2 0 01.06-.15.21.21 0 01.15-.06h5.05c.05 0 .1.03.14.07.05.03.07.09.07.14v1.07h3.15v-1.07c0-.02 0-.05.02-.08a.22.22 0 01.04-.06.2.2 0 01.15-.06h5.04a.2.2 0 01.09.01.2.2 0 01.06.04l.05.07.01.08v1.07h3.16v-1.07a.2.2 0 01.13-.19.2.2 0 01.08-.02h5.04a.21.21 0 01.15.06.22.22 0 01.06.15v1.07h3.16v-1.07l.01-.08a.24.24 0 01.05-.06.22.22 0 01.15-.07h5.04c.06 0 .11.03.15.07.04.04.06.09.06.14v1.07h3.16v-1.07a.2.2 0 01.06-.15.21.21 0 01.14-.06h5.05a.2.2 0 01.15.06l.04.07a.2.2 0 01.02.08v1.07h3.15v-1.07c0-.02 0-.05.02-.08a.22.22 0 01.04-.06.2.2 0 01.07-.05.2.2 0 01.08-.02h5.05a.2.2 0 01.15.06l.04.07.02.08v1.07h14.71a5.04 5.04 0 015.05 5.04z" fill="#3F3D56"/><path d="M298.07 253H22.73v.74h275.34V253zM235.79 152.86h-62.52v-1.3h-28.35v1.3H82.14a4.23 4.23 0 00-4.23 4.22v85.62a4.23 4.23 0 004.23 4.23h153.65a4.23 4.23 0 004.23-4.23v-85.61a4.22 4.22 0 00-4.23-4.23z" fill="#3F3D56"/><path d="M159.09 192.14a9.4 9.4 0 100-18.79 9.4 9.4 0 000 18.79z" stroke="#D0CDE1" stroke-width="2" stroke-miterlimit="10"/><path d="M156.08 195.52a9.4 9.4 0 100-18.79 9.4 9.4 0 000 18.79zM40.74 249.2H30.22v10.51h10.52V249.2z" fill="#D0CDE1"/><path d="M34.35 240.93v12.77h12.77v-12.77H34.35zm12.22 12.22H34.9v-11.66h11.67v11.66z" fill="#3F3D56"/><path d="M284.15 249.2h-10.51v10.51h10.51V249.2z" fill="#D0CDE1"/><path d="M277.77 240.93v12.77h12.77v-12.77h-12.77zm12.22 12.22h-11.67v-11.66H290v11.66z" fill="#3F3D56"/><path d="M35.53 87.25a29.8 29.8 0 100-59.6 29.8 29.8 0 000 59.6z" fill="#00BAFC"/><path d="M45.91 22.03a31.7 31.7 0 00-35.67 31.35A31.64 31.64 0 0048.49 84.3a31.61 31.61 0 00-2.58-62.26zm5.83 60.43a30.39 30.39 0 01-9.89 1.63 30.74 30.74 0 01-30.68-31.87 30.75 30.75 0 0130.68-29.54 30.7 30.7 0 019.9 59.78z" fill="#3F3D56"/><path d="M42.3 24.48h-.9v6.33h.9v-6.33zM21.73 32.63l-.63.64 4.47 4.47.63-.64-4.47-4.47zM12.95 52.93v.9h6.32v-.9h-6.32zM21.1 73.5l.63.64 4.47-4.47-.63-.64-4.47 4.47zM57.5 37.1l.64.64 4.47-4.47-.64-.64-4.47 4.47zM64.43 52.93v.9h6.32v-.9h-6.32zM58.14 69.03l-.64.64 4.47 4.47.64-.64-4.47-4.47zM42.3 75.96h-.9v6.33h.9v-6.33zM43.2 51.58a2.26 2.26 0 10-2.7 3.61 2.26 2.26 0 002.7-3.61zm-1.35 3.16a1.36 1.36 0 01-1.11-2.12 1.35 1.35 0 111.11 2.12zM45.91 14.1H37.8v8.13h8.12V14.1z" fill="#3F3D56"/><path d="M41.85 15.45c5.99 0 10.84-1.72 10.84-3.84s-4.85-3.83-10.84-3.83c-5.98 0-10.84 1.71-10.84 3.83s4.86 3.84 10.84 3.84zM43.2 36.22h-2.7v15.36h2.7V36.22zM84.9 83.62H0v.9h84.9v-.9z" fill="#3F3D56"/><path d="M56.57 226.1c.35 12-6.66 16.4-15.46 16.66a25.02 25.02 0 01-1.83 0c-7.96-.34-14.26-4.56-14.58-15.72-.34-11.55 14-26.56 15.07-27.67l.07-.07s16.38 14.8 16.73 26.8z" fill="#D0CDE1"/><path d="M40.47 240.94l5.6-8.3-5.59 9.2.02.93c-.41 0-.82 0-1.22-.02l.28-12.02v-.11l.03-1.14-6.12-8.89 6.11 8.04.02.24.21-9.08-5.28-9.22 5.3 7.62-.06-18.82v-.06.06l.36 14.83 4.82-6.02-4.8 7.3.1 8.13 4.43-7.94-4.42 9.13.06 4.52 6.45-11.05-6.43 12.63.13 10.04z" fill="#3F3D56"/><path d="M299.99 226.1c.35 12-6.67 16.4-15.47 16.66a25.08 25.08 0 01-1.82 0c-7.96-.34-14.26-4.56-14.58-15.72-.34-11.55 14-26.56 15.07-27.67l.06-.07s16.39 14.8 16.74 26.8z" fill="#D0CDE1"/><path d="M283.9 240.94l5.58-8.3-5.58 9.2.01.93c-.4 0-.8 0-1.2-.02l.27-12.02v-.11l.03-1.14-6.12-8.89 6.11 8.04.02.24.21-9.08-5.29-9.22 5.3 7.62-.05-18.82v-.06.06l.36 14.83 4.81-6.02-4.8 7.3.1 8.13 4.44-7.94-4.42 9.13.06 4.52 6.45-11.05-6.43 12.63.13 10.04z" fill="#3F3D56"/></g><defs><clipPath id="clip0"><path fill="#fff" transform="translate(0 .81)" d="M0 0h300v258.9H0z"/></clipPath></defs></svg>