<svg width="300" height="234" fill="none" xmlns="http://www.w3.org/2000/svg"><g clip-path="url(#clip0)"><path opacity=".8" d="M273.7 221.3H15.51V54.3a5.27 5.27 0 015.27-5.26h247.64a5.27 5.27 0 015.26 5.26V221.3z" fill="url(#paint0_linear)"/><path d="M24.33 52.08h240.54a5.27 5.27 0 015.26 5.27v163.94H19.08V57.35a5.27 5.27 0 015.25-5.27z" fill="#fff"/><path d="M262.05 61.93H27.16v154.06h234.9V61.93z" fill="#F5F5F5"/><path opacity=".8" d="M261.95 69.4H28.06v138.62h233.9V69.4z" fill="#E0E0E0"/><path d="M261.95 62.04H28.06v7.37h233.9v-7.37z" fill="#F5F5F5"/><path d="M33.08 67.4a1.79 1.79 0 100-3.57 1.79 1.79 0 000 3.57z" fill="#FF5252"/><path d="M37.99 67.4a1.79 1.79 0 100-3.57 1.79 1.79 0 000 3.57z" fill="#FF0"/><path d="M42.9 67.4a1.79 1.79 0 100-3.57 1.79 1.79 0 000 3.57z" fill="#69F0AE"/><path opacity=".8" d="M280.92 232.37c-14.38 1.09-261.18.66-269.8 0-11.31-5.45-11.1-26.6-11.1-26.6l113.18-.75.38 6.43h48.44l1.9-5.66h125.43s2.49 19.38-8.44 26.58z" fill="url(#paint1_linear)"/><path d="M287.5 207.48H164.53a3.78 3.78 0 01-2.87 6.24H114.7a3.79 3.79 0 01-2.87-6.24H1.7s-.19 18.36 10.98 23.1c8.52.57 252.3.95 266.5 0 10.8-6.26 8.33-23.1 8.33-23.1z" fill="#F5F5F5"/><path d="M27.26 212.97a1.51 1.51 0 100-3.03 1.51 1.51 0 000 3.03zM31.8 212.97a1.51 1.51 0 100-3.03 1.51 1.51 0 000 3.03zM36.34 212.97a1.51 1.51 0 100-3.03 1.51 1.51 0 000 3.03z" fill="#E0E0E0"/><path d="M139.94 126.1h10.73a46.5 46.5 0 0146.5 46.5v33.8H93.45v-33.8a46.5 46.5 0 0146.5-46.5z" fill="#00BAFC"/><path d="M145.41 108.02a47.4 47.4 0 100-94.8 47.4 47.4 0 000 94.8z" fill="#333"/><path opacity=".1" d="M138.43 112.3h13.71a9.66 9.66 0 019.67 9.66v9.42a14.78 14.78 0 01-14.78 14.78h-3.5a14.78 14.78 0 01-14.78-14.78v-9.4a9.67 9.67 0 019.67-9.67l.01-.02z" fill="#000"/><path d="M128.75 111.33h33.07v19.1a14.78 14.78 0 01-14.78 14.77h-3.5a14.78 14.78 0 01-14.79-14.77v-19.1z" fill="#FDB797"/><path opacity=".1" d="M128.81 116.1a47.6 47.6 0 0033.07.09v-4.06h-33.07v3.97z" fill="#000"/><path d="M145.41 118.31a47.4 47.4 0 100-94.8 47.4 47.4 0 000 94.8z" fill="#FDB797"/><path opacity=".1" d="M100.1 54.13h90.38s-7.71-36.5-41.89-34.19c-34.17 2.31-48.5 34.19-48.5 34.19z" fill="#000"/><path d="M100.1 52.9h90.38s-7.71-36.5-41.89-34.17c-34.17 2.33-48.5 34.17-48.5 34.17z" fill="#333"/><path d="M98.99 77.16c2.43 0 4.4-3.7 4.4-8.27 0-4.57-1.97-8.27-4.4-8.27-2.44 0-4.41 3.7-4.41 8.27 0 4.57 1.97 8.27 4.4 8.27zM191.59 77.16c2.43 0 4.4-3.7 4.4-8.27 0-4.57-1.97-8.27-4.4-8.27-2.44 0-4.41 3.7-4.41 8.27 0 4.57 1.97 8.27 4.4 8.27z" fill="#FDB797"/><path d="M107.1 28.72c1.1-3.54 3.06-6.92 6.1-9.03 2.31-1.6 5.07-2.38 7.72-3.32a59.03 59.03 0 0011.23-5.36c4.02-2.48 7.8-5.46 12.22-7.1 7.62-2.82 16.1-1.3 23.96.73 1.94.5 3.9 1.03 5.6 2.08 1.98 1.2 3.5 3.03 4.98 4.81l12.47 15.05a23.75 23.75 0 013.1 4.37 15.03 15.03 0 011.43 4.93c.33 2.76.07 5.69-1.34 8.1-2.1 3.6-6.46 5.4-10.63 5.57-4.17.17-8.26-1.04-12.27-2.22-12.91-3.78-26-7.3-39.4-8.87a111.13 111.13 0 00-20.04-.65c-2.1.13-4.87 1.1-6.15-1.04-1.1-1.86.46-6.19 1.03-8.05z" fill="#333"/><path opacity=".05" d="M113.75 169.6v36.8M177.7 169.6v36.8" stroke="#000" stroke-width="4" stroke-miterlimit="10"/><path opacity=".8" d="M300 66.98h-59.48l-20.08 16.74V66.98h-13.38V.83H300v66.15z" fill="url(#paint2_linear)"/><path d="M298.74 1.62h-90.42v63.25h90.42V1.62z" fill="#fff"/><path d="M290.15 10.91H218.5v1.88h71.64v-1.88zM267.76 19.38h-49.25v1.88h49.25v-1.88zM277.61 27.84h-59.1v1.88h59.1v-1.88z" fill="#E0E0E0"/><path d="M265.97 36.3h-47.46v1.89h47.46V36.3zM290.15 44.77H218.5v1.88h71.64v-1.88z" fill="#00BAFC"/><path d="M290.15 53.24H218.5v1.88h71.64v-1.88z" fill="#E0E0E0"/><path d="M223.8 63.64v16.73l18.4-18.4-18.4 1.67z" fill="#fff"/></g><defs><linearGradient id="paint0_linear" x1="144.61" y1="221.29" x2="144.61" y2="49.05" gradientUnits="userSpaceOnUse"><stop stop-color="gray" stop-opacity=".25"/><stop offset=".54" stop-color="gray" stop-opacity=".12"/><stop offset="1" stop-color="gray" stop-opacity=".1"/></linearGradient><linearGradient id="paint1_linear" x1="169221" y1="22573.1" x2="169221" y2="20218.2" gradientUnits="userSpaceOnUse"><stop stop-color="gray" stop-opacity=".25"/><stop offset=".54" stop-color="gray" stop-opacity=".12"/><stop offset="1" stop-color="gray" stop-opacity=".1"/></linearGradient><linearGradient id="paint2_linear" x1="70901.9" y1="20614.1" x2="70901.9" y2=".83" gradientUnits="userSpaceOnUse"><stop stop-color="gray" stop-opacity=".25"/><stop offset=".54" stop-color="gray" stop-opacity=".12"/><stop offset="1" stop-color="gray" stop-opacity=".1"/></linearGradient><clipPath id="clip0"><path fill="#fff" transform="translate(0 .83)" d="M0 0h300v232.2H0z"/></clipPath></defs></svg>